<svg width="16" height="16" viewBox="0 0 16 16" fill="none" xmlns="http://www.w3.org/2000/svg">
<path d="M12.6133 3.67333C12.48 3.28 12.1067 3 11.6667 3H4.33333C3.89333 3 3.52667 3.28 3.38667 3.67333L2 7.66667V13C2 13.3667 2.3 13.6667 2.66667 13.6667H3.33333C3.7 13.6667 4 13.3667 4 13V12.3333H12V13C12 13.3667 12.3 13.6667 12.6667 13.6667H13.3333C13.7 13.6667 14 13.3667 14 13V7.66667L12.6133 3.67333ZM4.33333 10.3333C3.78 10.3333 3.33333 9.88667 3.33333 9.33333C3.33333 8.78 3.78 8.33333 4.33333 8.33333C4.88667 8.33333 5.33333 8.78 5.33333 9.33333C5.33333 9.88667 4.88667 10.3333 4.33333 10.3333ZM11.6667 10.3333C11.1133 10.3333 10.6667 9.88667 10.6667 9.33333C10.6667 8.78 11.1133 8.33333 11.6667 8.33333C12.22 8.33333 12.6667 8.78 12.6667 9.33333C12.6667 9.88667 12.22 10.3333 11.6667 10.3333ZM3.33333 7L4.33333 4H11.6667L12.6667 7H3.33333Z" fill="black"/>
</svg>
