<svg width="16" height="16" viewBox="0 0 16 16" fill="none" xmlns="http://www.w3.org/2000/svg">
<path d="M10.6667 7.33331C11.7734 7.33331 12.6601 6.43998 12.6601 5.33331C12.6601 4.22665 11.7734 3.33331 10.6667 3.33331C9.56008 3.33331 8.66675 4.22665 8.66675 5.33331C8.66675 6.43998 9.56008 7.33331 10.6667 7.33331ZM5.33341 7.33331C6.44008 7.33331 7.32675 6.43998 7.32675 5.33331C7.32675 4.22665 6.44008 3.33331 5.33341 3.33331C4.22675 3.33331 3.33341 4.22665 3.33341 5.33331C3.33341 6.43998 4.22675 7.33331 5.33341 7.33331ZM5.33341 8.66665C3.78008 8.66665 0.666748 9.44665 0.666748 11V12.6666H10.0001V11C10.0001 9.44665 6.88675 8.66665 5.33341 8.66665ZM10.6667 8.66665C10.4734 8.66665 10.2534 8.67998 10.0201 8.69998C10.7934 9.25998 11.3334 10.0133 11.3334 11V12.6666H15.3334V11C15.3334 9.44665 12.2201 8.66665 10.6667 8.66665Z" fill="black"/>
</svg>
