<svg width="16" height="16" viewBox="0 0 16 16" fill="none" xmlns="http://www.w3.org/2000/svg">
<path d="M12.7599 8.62398C12.7839 8.42398 12.7999 8.21598 12.7999 7.99998C12.7999 7.78398 12.7839 7.57598 12.7519 7.37598L14.1039 6.31998C14.2239 6.22398 14.2559 6.04798 14.1839 5.91198L12.9039 3.69598C12.8239 3.55198 12.6559 3.50398 12.5119 3.55198L10.9199 4.19198C10.5839 3.93598 10.2319 3.72798 9.83991 3.56798L9.59991 1.87198C9.57591 1.71198 9.43991 1.59998 9.27991 1.59998H6.71991C6.55991 1.59998 6.43191 1.71198 6.40791 1.87198L6.16791 3.56798C5.77591 3.72798 5.41591 3.94398 5.08791 4.19198L3.49591 3.55198C3.35191 3.49598 3.18391 3.55198 3.10391 3.69598L1.82391 5.91198C1.74391 6.05598 1.77591 6.22398 1.90391 6.31998L3.25591 7.37598C3.22391 7.57598 3.19991 7.79198 3.19991 7.99998C3.19991 8.20798 3.21591 8.42398 3.24791 8.62398L1.89591 9.67998C1.77591 9.77598 1.74391 9.95198 1.81591 10.088L3.09591 12.304C3.17591 12.448 3.34391 12.496 3.48791 12.448L5.07991 11.808C5.41591 12.064 5.76791 12.272 6.15991 12.432L6.39991 14.128C6.43191 14.288 6.55991 14.4 6.71991 14.4H9.27991C9.43991 14.4 9.57591 14.288 9.59191 14.128L9.83191 12.432C10.2239 12.272 10.5839 12.056 10.9119 11.808L12.5039 12.448C12.6479 12.504 12.8159 12.448 12.8959 12.304L14.1759 10.088C14.2559 9.94398 14.2239 9.77598 14.0959 9.67998L12.7599 8.62398ZM7.99991 10.4C6.67991 10.4 5.59991 9.31998 5.59991 7.99998C5.59991 6.67998 6.67991 5.59998 7.99991 5.59998C9.31991 5.59998 10.3999 6.67998 10.3999 7.99998C10.3999 9.31998 9.31991 10.4 7.99991 10.4Z" fill="black"/>
</svg>
